<svg width="23" height="23" viewBox="0 0 23 23" fill="none" xmlns="http://www.w3.org/2000/svg">
<path d="M21.8499 10.35H12.6501V1.14993C12.6501 0.515268 12.1348 0 11.4999 0C10.8653 0 10.35 0.515268 10.35 1.14993V10.35H1.14993C0.515268 10.35 0 10.8653 0 11.4999C0 12.1348 0.515268 12.6501 1.14993 12.6501H10.35V21.8499C10.35 22.4848 10.8653 23.0001 11.4999 23.0001C12.1348 23.0001 12.6501 22.4848 12.6501 21.8499V12.6501H21.8499C22.4848 12.6501 23.0001 12.1348 23.0001 11.4999C23.0001 10.8653 22.4848 10.35 21.8499 10.35Z" fill="#C4C4C4"/>
</svg>
