<svg width="16" height="15" viewBox="0 0 16 15" fill="none" xmlns="http://www.w3.org/2000/svg">
<path d="M0.453909 12.9175L2.11516 14.4972C2.72669 15.0788 3.72517 15.0853 4.34536 14.5124L7.9724 11.16L11.5469 14.5597C12.1588 15.1413 13.1573 15.1478 13.7772 14.5745L15.4616 13.0181C16.082 12.4448 16.0893 11.5088 15.4774 10.9268L11.9027 7.52715L15.5301 4.17519C16.1501 3.60189 16.1578 2.66581 15.5455 2.08384L13.885 0.504057C13.2732 -0.0771275 12.2747 -0.0840413 11.6547 0.488907L8.0271 3.84128L4.45258 0.441291C3.84066 -0.139953 2.84212 -0.146807 2.222 0.426141L0.537853 1.98278C-0.0825263 2.55645 -0.0900293 3.49217 0.521693 4.07413L4.09654 7.47412L0.470069 10.8269C-0.15031 11.3998 -0.157813 12.3362 0.453909 12.9175Z" fill="white"/>
</svg>
