<svg width="26" height="26" viewBox="0 0 26 26" fill="none" xmlns="http://www.w3.org/2000/svg">
<g opacity="0.4">
<path d="M12.9999 26C13.4206 26 13.7617 25.659 13.7617 25.2383V20.343C13.7617 19.9223 13.4206 19.5812 12.9999 19.5812C12.5793 19.5812 12.2382 19.9223 12.2382 20.343V25.2383C12.2382 25.659 12.5793 26 12.9999 26Z" fill="black"/>
<path d="M12.9999 6.4187C13.4206 6.4187 13.7617 6.07765 13.7617 5.65698V0.761723C13.7617 0.341051 13.4206 3.8147e-06 12.9999 3.8147e-06C12.5793 3.8147e-06 12.2382 0.341051 12.2382 0.761723V5.65698C12.2382 6.07771 12.5793 6.4187 12.9999 6.4187Z" fill="black"/>
<path d="M16.0118 19.7401L18.4594 23.9796C18.6698 24.344 19.1356 24.4688 19.4999 24.2584C19.8642 24.0481 19.9891 23.5822 19.7787 23.2179L17.3311 18.9784C17.19 18.734 16.9339 18.5975 16.6707 18.5975C16.5415 18.5975 16.4105 18.6304 16.2906 18.6996C15.9262 18.91 15.8014 19.3758 16.0118 19.7401Z" fill="black"/>
<path d="M6.22115 2.78223L8.66876 7.02159C8.8791 7.38595 9.34497 7.51076 9.70927 7.30038C10.0736 7.09004 10.1984 6.62418 9.98806 6.25987L7.54045 2.02051C7.39938 1.7761 7.14334 1.63955 6.88009 1.63955C6.75085 1.63955 6.61989 1.67246 6.49994 1.74172C6.13563 1.95206 6.01081 2.41793 6.22115 2.78223Z" fill="black"/>
<path d="M18.9783 17.3312L23.2178 19.7789C23.5822 19.9893 24.048 19.8644 24.2583 19.5001C24.4687 19.1358 24.3438 18.6699 23.9795 18.4596L19.74 16.0118C19.6201 15.9426 19.4891 15.9097 19.3599 15.9097C19.0966 15.9097 18.8406 16.0463 18.6995 16.2907C18.4892 16.655 18.614 17.1208 18.9783 17.3312Z" fill="black"/>
<path d="M2.02043 7.54032L6.25985 9.98791C6.62425 10.1982 7.09007 10.0734 7.30035 9.70908C7.51069 9.34472 7.38587 8.87886 7.02156 8.66857L2.78215 6.22097C2.66215 6.15171 2.53124 6.1188 2.402 6.1188C2.13875 6.1188 1.88266 6.2554 1.74164 6.49976C1.53131 6.86417 1.65613 7.33003 2.02043 7.54032Z" fill="black"/>
<path d="M20.3429 13.7615H25.2383C25.659 13.7615 26 13.4204 26 12.9997C26 12.5791 25.659 12.238 25.2383 12.238H20.3429C19.9222 12.238 19.5812 12.5791 19.5812 12.9997C19.5812 13.4204 19.9222 13.7615 20.3429 13.7615Z" fill="black"/>
<path d="M0.761711 13.7615H5.65692C6.07759 13.7615 6.41864 13.4204 6.41864 12.9997C6.41864 12.5791 6.07759 12.238 5.65692 12.238H0.761711C0.341039 12.238 -7.62939e-06 12.5791 -7.62939e-06 12.9997C-7.62939e-06 13.4204 0.341039 13.7615 0.761711 13.7615Z" fill="black"/>
<path d="M18.6994 9.70933C18.9098 10.0737 19.3755 10.1985 19.7399 9.98812L23.9795 7.54046C24.3438 7.33012 24.4686 6.86425 24.2583 6.49995C24.1172 6.25554 23.8612 6.11899 23.5979 6.11899C23.4687 6.11899 23.3377 6.15189 23.2178 6.22116L18.9782 8.66882C18.6139 8.87916 18.4891 9.34503 18.6994 9.70933Z" fill="black"/>
<path d="M1.74168 19.4999C1.95202 19.8642 2.41783 19.989 2.78219 19.7787L7.02162 17.331C7.38593 17.1207 7.51075 16.6549 7.30041 16.2906C7.15934 16.0461 6.9033 15.9095 6.64005 15.9095C6.51086 15.9095 6.37985 15.9424 6.2599 16.0117L2.02047 18.4594C1.65617 18.6697 1.53134 19.1356 1.74168 19.4999Z" fill="black"/>
<path d="M16.2906 7.30036C16.6549 7.51079 17.1208 7.38592 17.3311 7.02157L19.7787 2.7821C19.9891 2.41779 19.8642 1.95192 19.4999 1.74159C19.38 1.67232 19.249 1.63942 19.1198 1.63942C18.8565 1.63942 18.6004 1.77602 18.4594 2.02038L16.0118 6.25985C15.8014 6.62415 15.9262 7.09002 16.2906 7.30036Z" fill="black"/>
<path d="M6.49994 24.2584C6.8643 24.4688 7.33017 24.3439 7.54045 23.9796L9.98806 19.7402C10.1984 19.3759 10.0736 18.91 9.70927 18.6997C9.58933 18.6304 9.45836 18.5975 9.32912 18.5975C9.06587 18.5975 8.80983 18.7341 8.66876 18.9785L6.22115 23.2179C6.01082 23.5822 6.13564 24.048 6.49994 24.2584Z" fill="black"/>
</g>
</svg>
